<svg xmlns="http://www.w3.org/2000/svg" fill="none" viewBox="0 0 33 34"><path fill="#D8AA44" d="M16.305 1.03c8.837 0 16 7.162 16 16 0 8.836-7.163 16-16 16s-16-7.164-16-16c0-8.838 7.163-16 16-16m13.533 16v-.011q.002-.19-.007-.379v-.043q-.002-.162-.012-.32v-.032l-.005-.064a5 5 0 0 0-.021-.298l-.01-.134a3 3 0 0 0-.024-.214l-.015-.145a18 18 0 0 0-.103-.701q-.045-.26-.102-.515-.028-.137-.06-.272a7 7 0 0 0-.073-.289 3 3 0 0 0-.066-.241 3 3 0 0 0-.043-.15l-.053-.184a14 14 0 0 0-.488-1.33q-.037-.089-.075-.175a5 5 0 0 0-.102-.222l-.04-.087-.106-.216a12 12 0 0 0-.423-.783c-.04-.075-.083-.143-.126-.213q-.154-.255-.32-.5a13 13 0 0 0-1.065-1.388 13 13 0 0 0-.977-1.007l-.045-.04q-.097-.091-.194-.176a11 11 0 0 0-.496-.419q-.141-.117-.287-.224a12 12 0 0 0-.85-.599l-.077-.05q-.29-.187-.586-.354s-.004 0-.004-.004a9 9 0 0 0-.317-.173 5 5 0 0 0-.325-.167q-.143-.073-.29-.143l-.071-.032a7 7 0 0 0-.306-.137 5 5 0 0 0-.24-.1c-.046-.022-.093-.039-.142-.06l-.302-.116a9 9 0 0 0-.337-.12l-.011-.004q-.173-.058-.348-.113-.01-.001-.02-.006-.171-.052-.342-.099a9 9 0 0 0-.423-.109c-.004 0-.01-.004-.017-.004l-.214-.05a11 11 0 0 0-.51-.102q-.076-.014-.148-.025-.124-.022-.246-.041a14 14 0 0 0-.361-.051c-.103-.011-.206-.026-.308-.035h-.009a7 7 0 0 0-.312-.027c-.017 0-.034-.005-.053-.005a8 8 0 0 0-.319-.019h-.004a9 9 0 0 0-.348-.013q-.176-.004-.349-.004-.172-.001-.342.004h-.017q-.282.007-.558.026l-.158.01-.295.026q-.135.012-.27.03l-.16.02a15 15 0 0 0-1.552.3l-.184.048c-.01.004-.019.004-.03.009-.006 0-.01.004-.016.004l-.193.053a8 8 0 0 0-.415.128 12 12 0 0 0-1.077.402q-.108.044-.214.094c-.038.018-.075.032-.113.052a14 14 0 0 0-1.774.974 2 2 0 0 0-.154.103q-.07.046-.141.096l-.17.116a12 12 0 0 0-.412.308q-.121.09-.241.19-.166.132-.327.271a8 8 0 0 0-.317.282q-.15.135-.295.278l-.012.013s-.015.015-.024.021l-.15.15-.218.225a9 9 0 0 0-.188.203 8 8 0 0 0-.218.245 9 9 0 0 0-.19.223q-.01.011-.017.023-.105.125-.203.253-.103.129-.199.258a6 6 0 0 0-.19.261 8 8 0 0 0-.186.267q-.174.253-.332.517l-.06.099q-.066.106-.128.216l-.062.109q-.024.038-.04.077-.054.092-.105.188l-.083.16q-.032.057-.06.118-.054.1-.103.205-.015.029-.03.064l-.115.246a12 12 0 0 0-.37.906q-.008.01-.009.021-.057.15-.106.304-.058.157-.103.316a5 5 0 0 0-.094.321q-.047.16-.088.323a4 4 0 0 0-.055.222q-.017.063-.03.128c-.026.1-.045.201-.066.304a6 6 0 0 0-.062.32q-.006.017-.007.037a6 6 0 0 0-.045.284 1 1 0 0 0-.017.116 10 10 0 0 0-.073.586q-.015.108-.019.213l-.015.167q-.009.113-.013.224a1 1 0 0 0-.006.11q-.005.063-.006.128-.012.27-.011.538 0 .352.02.7a8 8 0 0 0 .053.686q.013.16.036.32.004.05.013.1.014.13.036.257.049.337.12.667.015.1.043.197.023.114.05.226.018.084.041.167.017.075.039.145.022.101.053.201.018.067.039.13.03.115.066.23a11 11 0 0 0 .331.936q.055.142.116.28.044.114.098.228.058.132.118.26a12 12 0 0 0 .562 1.074q.024.044.051.086.06.104.122.2l.116.187.025.038.163.248q.274.407.579.791.058.079.124.154.081.103.167.203l.025.032q.082.096.165.186.068.086.15.169.107.122.222.237a14 14 0 0 0 .878.842l.154.133q.042.039.084.073c.06.049.117.098.18.145q.071.062.145.115.121.1.248.193l.01.006q.26.196.53.377.134.092.272.179.131.087.265.167l.02.01q.133.085.27.16.3.172.603.328.134.068.268.132.135.066.271.129l.026.01q.143.065.288.126l.035.013q.136.058.277.114.008.005.015.006.12.047.236.09a13 13 0 0 0 .81.271c.085.026.173.054.26.075q.106.03.214.058.11.029.22.055.088.023.176.043.04.01.083.017l.229.05q.136.028.273.053l.178.032.085.015q.113.02.225.034.288.044.583.073l.321.03.07.004q.136.01.272.017h.038q.15.01.304.01.188.007.378.007.175.001.349-.004.174-.002.348-.013a11 11 0 0 0 .515-.036q.215-.017.426-.045l.254-.032q.02-.002.039-.007.12-.016.241-.036l.124-.021q.08-.012.16-.028.107-.017.212-.04.123-.024.242-.052.098-.02.192-.043l.28-.068q.164-.042.323-.088.167-.047.331-.098l.306-.1q.43-.146.846-.321.134-.055.272-.116l.013-.004q.138-.059.273-.124.138-.065.274-.133l.271-.136q.134-.069.263-.144.156-.085.308-.175l.216-.13q.387-.24.757-.5.49-.35.947-.742.514-.437.979-.924c.08-.083.162-.166.237-.254a12 12 0 0 0 .675-.8q.111-.136.212-.277.099-.13.188-.261l.047-.066q.085-.122.165-.246a5 5 0 0 0 .19-.295q.095-.145.18-.297.002-.006.004-.005a7 7 0 0 0 .154-.267l.034-.06q.071-.127.139-.256a.2.2 0 0 1 .02-.039q.068-.13.134-.265l.026-.053q.073-.15.143-.302.075-.159.143-.322.07-.164.135-.328l.004-.01a13 13 0 0 0 .348-.996q.049-.16.094-.323a12 12 0 0 0 .176-.701l.012-.06q.035-.15.06-.304.006-.009.005-.019.035-.173.062-.35.031-.18.053-.362.022-.142.036-.284l.018-.152.03-.31q.008-.097.012-.199.01-.101.013-.207.009-.172.013-.348l.004-.35z"/><path fill="#74BCE2" d="M29.831 16.64q.007.189.007.378v.01q.001.178-.005.351-.001.175-.012.349l-.013.207-.013.199q-.012.154-.03.31-.006.075-.017.151a13 13 0 0 1-.09.646 6 6 0 0 1-.062.35q.001.01-.004.02a7 7 0 0 1-.06.303l-.013.06-.066.282a13 13 0 0 1-.552 1.738l-.004.01q-.064.165-.134.328-.069.163-.144.323-.069.151-.143.301l-.026.054q-.065.132-.134.265a.2.2 0 0 0-.02.038l-.139.257-.034.06c-.051.087-.102.179-.154.267l-.004.004-.18.297q-.092.15-.19.295l-.164.246q-.025.033-.047.066l-.188.261a9 9 0 0 1-.212.278q-.108.139-.218.273-.221.27-.457.526l-.238.255a14 14 0 0 1-.754.727c-2.7-8.209-5.42-10.588-10.504-9.438-3.419.88-5.47 5.94-6.61 10.177a10 10 0 0 1-.393-.306 4 4 0 0 1-.18-.145q-.041-.033-.083-.073a2 2 0 0 1-.154-.132q-.086-.075-.17-.152-.021-.017-.044-.04a12 12 0 0 1-.665-.65l-.222-.238a4 4 0 0 1-.15-.169q-.084-.092-.164-.186-.013-.014-.026-.032a5 5 0 0 1-.167-.203q-.059-.075-.124-.154a14 14 0 0 1-.579-.79l-.162-.248-.026-.039a5 5 0 0 1-.115-.186q-.063-.098-.122-.2l-.052-.086q-.075-.128-.145-.257-.225-.399-.417-.819a5 5 0 0 1-.117-.258 3 3 0 0 1-.099-.229 8 8 0 0 1-.115-.28A7 7 0 0 1 3.6 21.7c-.011-.021-.017-.043-.026-.064a14 14 0 0 1-.194-.58q-.035-.112-.067-.228a2 2 0 0 1-.038-.13l-.054-.201a1 1 0 0 1-.038-.146q-.022-.082-.04-.166a4 4 0 0 1-.052-.227 14 14 0 0 1-.162-.864q-.02-.127-.037-.256a16 16 0 0 1-.05-.421l-.029-.327q-.005-.016-.004-.032a15 15 0 0 1-.026-1.562c6.813 2.547 10.051 1.801 12.321-2.466 1.343-2.719-.31-6.688-2.366-10.053.01-.004.02-.004.03-.008.06-.017.124-.032.184-.047q.114-.03.224-.056l.178-.04q.568-.126 1.15-.206l.16-.019a12 12 0 0 1 .564-.055q.08-.008.159-.011.278-.02.557-.026h.018q.17-.005.342-.004c.113 0 .233 0 .348.004q.174.002.348.013h.005q.16.005.318.02c.017 0 .036.004.054.004q.157.01.312.027h.008l.308.035.064.008q.15.02.297.043.123.018.246.04l.148.026q.112.02.226.043.142.028.285.06l.213.049c.005 0 .01.004.017.004q.216.05.424.11c-3.54 6.752-3.241 10.134.825 12.934 2.27 1.464 5.795.682 9.065-.678v.032q.01.16.013.32v.044z"/><path fill="#EFF2E1" d="m29.81 16.177.004.064c-3.271 1.36-6.798 2.144-9.066.678-4.066-2.8-4.367-6.182-.825-12.935l.342.099.019.006.36.118q.17.058.337.12.151.055.301.115.07.026.143.06.122.049.24.1.154.066.306.137.037.015.07.032.148.07.29.143.164.081.326.167l.316.173s.004 0 .004.004q.301.17.586.353l.077.051a14 14 0 0 1 .85.599l.287.224q.14.112.278.231a2.58 2.58 0 0 0-1.49.67c-1.073.991-1.113 2.693-.09 3.802 1.024 1.11 2.724 1.206 3.799.216.357-.33.6-.735.727-1.174q.224.386.423.783.056.107.105.216.022.044.04.087l.103.223q.039.085.075.175a13 13 0 0 1 .65 1.905l.023.087.05.201q.034.134.06.272a10 10 0 0 1 .155.855l.05.36q.009.074.014.146.016.105.024.214.007.066.01.135.016.146.022.297zm-3.06-.81a.902.902 0 1 0-1.223-1.325.902.902 0 0 0 1.223 1.325m-4.087-.61a.882.882 0 1 0 0 .003zm-1.77-4.293a.905.905 0 0 0 .054-1.277.905.905 0 0 0-1.276-.051.902.902 0 1 0 1.223 1.327"/><path fill="#3C3D38" d="M12.742 3.973c2.056 3.365 3.709 7.334 2.366 10.053-2.27 4.269-5.508 5.013-12.32 2.465l.003-.13c0-.037.005-.073.007-.11l.013-.224q.005-.083.015-.167.006-.108.019-.213.015-.173.038-.345l.034-.241.018-.116c.012-.094.03-.188.044-.284q.002-.02.007-.036c.02-.107.038-.214.062-.32.02-.104.043-.202.066-.304q.012-.066.03-.129l.056-.222q.038-.163.087-.323l.094-.32a8 8 0 0 1 .103-.317 7 7 0 0 1 .107-.303q.001-.012.008-.022.056-.15.114-.299.118-.308.256-.607.056-.123.116-.246.014-.035.03-.064.05-.103.102-.205a1 1 0 0 1 .06-.118l.083-.16.105-.188.04-.075c.073.63.37 1.227.881 1.67 1.108.953 2.803.799 3.788-.345.988-1.143.89-2.843-.22-3.796a2.6 2.6 0 0 0-2.084-.599l.013-.012q.144-.141.295-.278.155-.144.316-.283a14 14 0 0 1 .569-.461l.132-.103q.14-.106.28-.205c.056-.039.111-.08.17-.115q.07-.052.14-.097l.154-.102q.148-.1.3-.19a13 13 0 0 1 1.475-.784l.113-.052.213-.094q.133-.058.266-.11a12 12 0 0 1 1.02-.359l.207-.062.192-.053s.01-.004.017-.004zm.353 5.953a.903.903 0 0 0-1.366-1.178.9.9 0 0 0 .094 1.272.9.9 0 0 0 1.274-.094zm-.571 3.993a.881.881 0 1 0-1.336-1.152.881.881 0 1 0 1.336 1.152m-4.14 1.661a.903.903 0 1 0-1.272.094.9.9 0 0 0 1.271-.094"/><path fill="#877F72" d="M8.29 14.308a.9.9 0 1 1-1.178 1.368.9.9 0 0 1 1.177-1.368m4.144-1.632a.88.88 0 1 1-1.152 1.335.881.881 0 1 1 1.152-1.335m15.574-2.449c-.126.438-.37.846-.727 1.176-1.075.99-2.774.893-3.798-.216-1.022-1.11-.984-2.811.09-3.803a2.6 2.6 0 0 1 1.49-.67 9 9 0 0 1 .412.364l.045.04c.06.059.124.116.182.174q.202.192.395.395.205.215.4.439l.162.19a13.6 13.6 0 0 1 1.349 1.91m-1.205 3.869a.902.902 0 1 1-1.326 1.222.902.902 0 0 1 1.326-1.222"/><path fill="#9E6D4C" d="m25.311 27.125-.227.199q-.459.387-.947.742-.37.26-.756.5-.106.067-.216.13-.154.09-.308.175-.132.074-.263.144-.135.072-.271.136-.136.068-.274.133-.136.063-.274.124l-.012.004q-.134.061-.272.116-.417.173-.846.32-.15.052-.306.1a15 15 0 0 1-.934.255q-.096.023-.193.043-.12.03-.241.051-.105.025-.212.04-.08.017-.16.029l-.124.021q-.12.02-.242.036-.018.006-.038.007l-.255.032a14 14 0 0 1-.666.064l-.274.017q-.172.009-.349.013-.173.005-.348.004-.19.002-.378-.006a5 5 0 0 1-.304-.01h-.038q-.138-.008-.272-.018c-.025 0-.047-.004-.07-.004a8 8 0 0 1-.321-.03c-.197-.02-.389-.043-.584-.073q-.113-.015-.224-.034l-.085-.015-.178-.032c-.092-.017-.184-.032-.274-.054a11 11 0 0 1-.312-.066l-.175-.043q-.111-.026-.22-.055a4 4 0 0 1-.214-.058 9 9 0 0 1-.44-.13 12 12 0 0 1-.866-.306l-.015-.006q-.14-.056-.278-.114l-.034-.012q-.144-.062-.289-.127-.012-.006-.025-.01l-.272-.129a12 12 0 0 1-1.141-.62l-.02-.01q-.136-.083-.264-.167a16 16 0 0 1-.802-.556q-.005-.001-.01-.006c1.139-4.239 3.193-9.296 6.609-10.177 5.085-1.15 7.804 1.229 10.504 9.437zm-3.48-4.438a.902.902 0 1 0-1.805 0 .902.902 0 0 0 1.805 0m-2.1 3.13c0-1.46-1.224-2.644-2.733-2.644s-2.734 1.184-2.734 2.644 1.225 2.646 2.734 2.646 2.734-1.184 2.734-2.646m-1.957-5.611a.88.88 0 1 0-1.762 0 .88.88 0 0 0 1.762 0m-3.431 1.953a.902.902 0 1 0-1.805 0 .902.902 0 0 0 1.805 0"/><path fill="#877F72" d="M22.717 13.51a.882.882 0 1 1 0-.002zm-1.786 8.275a.902.902 0 1 1 0 1.805.902.902 0 0 1 0-1.805m.016-12.596a.902.902 0 1 1-1.328 1.222.902.902 0 0 1 1.328-1.222M17 23.172c1.509 0 2.734 1.184 2.734 2.644S18.509 28.462 17 28.462c-1.51 0-2.734-1.184-2.734-2.646S15.49 23.172 17 23.172m-.106-3.848a.88.88 0 1 1 0 1.762.88.88 0 0 1 0-1.762m-3.451 1.934a.902.902 0 1 1 0 1.804.902.902 0 0 1 0-1.804m-.445-12.604a.903.903 0 1 1-.002 0zM8.954 7.93c1.108.954 1.206 2.654.22 3.797-.985 1.144-2.68 1.298-3.787.344a2.58 2.58 0 0 1-.881-1.67c.02-.035.04-.074.062-.108q.06-.108.128-.216.027-.049.06-.098a15 15 0 0 1 .517-.785l.017-.026.174-.235q.097-.13.198-.258.102-.129.203-.253l.017-.023.19-.222q.107-.125.219-.246.093-.104.188-.203c.073-.075.143-.152.218-.225l.15-.15.023-.02a2.6 2.6 0 0 1 2.084.598"/><path stroke="#000" stroke-linecap="round" stroke-miterlimit="10" stroke-width=".291" d="M29.83 16.64q.006.19.007.379m-.019-.742q.01.16.013.321m-.192-1.91q.03.17.053.34l.05.36q.009.074.014.146.014.105.024.214.006.065.01.134.016.148.022.298m-.388-2.479q.026.1.049.201.035.134.06.272m-.197-.803q.035.12.066.242m-.162-.573q.03.088.054.183m-.718-1.91.103.222q.038.085.075.175m-.324-.702q.054.108.104.216m-.974-1.712q.164.246.321.5m-1.387-1.887q.084.094.163.19m-1.139-1.198c.06.056.124.113.181.173q.201.193.396.396M23.643 5.66a12 12 0 0 1 .85.599q.146.107.287.224.252.202.496.42.098.084.194.174m-2.491-1.821q.298.167.585.353m-1.523-.839q.146.068.29.143.165.08.326.166.16.084.316.174m-1.686-.81q.07.027.143.06.122.047.24.1.154.064.305.137m-1.328-.533q.17.057.337.12m-.701-.235q.177.055.349.113m-1.132-.33q.215.05.423.109.173.047.342.098m-.993-.258q.108.023.213.05m-.874-.179.148.026q.114.02.226.043m-.917-.154q.15.019.297.042m-.668-.084.308.035m-.63-.063q.158.009.312.027m-.681-.051q.161.006.318.019m-1.361-.033q.171-.005.342-.004c.113 0 .233 0 .348.004q.175.002.349.013m-1.613.015q.279-.02.558-.026m-1.011.061q.147-.017.294-.026m-.724.078.16-.02m-1.488.263.177-.04m-.583.145q.09-.025.183-.047m-.424.112q.096-.03.193-.053m-.607.181a5 5 0 0 1 .207-.066m-1.614.614.114-.052.214-.094q.132-.058.265-.109M9.236 5.488q.166-.101.334-.199m-.787.493.154-.102m-.462.314q.082-.059.168-.115M6.88 7.32q.145-.14.296-.278.153-.144.316-.282.159-.139.327-.272.118-.098.242-.19l.132-.103M6.697 7.501l.15-.15m-.556.583q.093-.103.188-.204m-.599.67.191-.222m-.784.99q.087-.12.173-.235c.067-.088.13-.173.199-.259l.203-.252M4.756 9.98a15 15 0 0 1 .517-.785m-.767 1.208q.03-.056.062-.109.06-.108.128-.216m-.421.751.084-.16q.05-.097.104-.189m-.348.67q.05-.102.103-.205m-.249.515q.056-.122.115-.245m-.482 1.151q.054-.15.113-.3m-.428 1.261.094-.32q.048-.16.103-.317.05-.153.107-.303m-.445 1.483.056-.222m-.216.976q.029-.16.062-.32c.02-.103.043-.201.067-.304m-.179.945c.012-.095.03-.189.044-.285m-.097.642q.016-.122.034-.242m-.091.802a4 4 0 0 1 .02-.214m-.049.606.013-.225m.002 2.023a15 15 0 0 1-.026-1.563c0-.042.004-.087.004-.13m.09 2.375-.036-.321q-.016-.162-.03-.327m.369 2.261-.04-.166c-.017-.075-.037-.152-.052-.227a14 14 0 0 1-.199-1.12m.382 1.863-.053-.2m.359 1.137a14 14 0 0 1-.195-.58q-.035-.111-.067-.228m.51 1.446a8 8 0 0 1-.115-.28 7 7 0 0 1-.111-.293m.443 1.06a7 7 0 0 1-.117-.259m.68 1.333q-.074-.128-.145-.257m.431.729a6 6 0 0 1-.116-.186l-.122-.201m.426.674q-.081-.122-.162-.248m1.029 1.396q-.085-.1-.167-.203l-.124-.154m.853.981-.222-.238a4 4 0 0 1-.15-.169q-.082-.09-.164-.186m1.203 1.245a6 6 0 0 1-.203-.188m.568.515q-.078-.065-.153-.133-.087-.074-.17-.151m.98.806a10 10 0 0 1-.393-.306q-.09-.071-.18-.145m1.651 1.182q-.136-.083-.265-.167a16 16 0 0 1-.802-.556m1.359.893-.271-.16m1.411.749-.27-.129q-.136-.064-.268-.132m.853.397q-.145-.06-.289-.126m.602.252q-.14-.055-.277-.113m.526.211-.235-.09m1.044.365a4 4 0 0 1-.18-.056m.656.186a4 4 0 0 1-.214-.058m.609.157c-.06-.013-.115-.028-.175-.043m.486.108q-.112-.023-.228-.05m.677.138a3 3 0 0 1-.177-.032m.49.08q-.114-.014-.225-.033m1.128.133a8 8 0 0 1-.321-.03m.664.05q-.138-.006-.271-.017m.612.031q-.153-.001-.304-.011m1.379 0q-.173.009-.349.013-.174.005-.348.004m1.212-.052q-.12.012-.242.02m.923-.098q-.127.017-.255.032m.531-.075q-.12.019-.242.036m.74-.126q-.107.025-.212.04-.08.016-.16.028m.805-.162-.192.043m.795-.199q-.16.046-.322.087m.962-.282-.306.1m1.42-.538q-.134.062-.272.115m1.367-.658q-.132.074-.263.143-.135.072-.271.137a11 11 0 0 1-.548.257m1.607-.845-.216.13m4.214-3.884q-.091.131-.189.26a5 5 0 0 1-.212.278q-.105.138-.218.274-.219.27-.457.526-.114.13-.237.254-.465.489-.98.924a14 14 0 0 1-.946.741m3.823-4.162q-.086.151-.18.297-.09.151-.19.295a10 10 0 0 1-.164.246m.69-1.109q-.074.136-.153.267m.326-.587a7 7 0 0 1-.139.256m.296-.561q-.065.136-.136.265m.578-1.269a9 9 0 0 1-.135.327 9 9 0 0 1-.143.323q-.069.151-.143.301m.872-2.285q-.044.163-.094.323a13 13 0 0 1-.348.996m.616-2.02q-.03.141-.066.282m.139-.644a7 7 0 0 1-.06.304m.235-1.47-.018.152q-.014.142-.036.285a7 7 0 0 1-.053.36 6 6 0 0 1-.062.351m.237-2.21q-.001.174-.012.348l-.013.208-.013.199"/><path stroke="#000" stroke-linecap="round" stroke-miterlimit="10" stroke-width=".291" d="M16.305 33.03c8.836 0 16-7.164 16-16s-7.164-16-16-16-16 7.163-16 16 7.163 16 16 16Z"/><path stroke="#000" stroke-linecap="round" stroke-miterlimit="10" stroke-width=".291" d="M16.307 30.543c7.462 0 13.512-6.05 13.512-13.512S23.769 3.52 16.307 3.52 2.795 9.569 2.795 17.03c0 7.463 6.05 13.512 13.512 13.512Z"/><path stroke="#000" stroke-linecap="round" stroke-miterlimit="10" stroke-width=".291" d="M29.814 16.242v.032q.01.16.013.32v.044q.006.189.006.378v.01q.001.178-.004.351-.004.174-.013.349l-.012.207-.013.199q-.012.154-.03.31-.006.075-.017.152a13 13 0 0 1-.09.645 6 6 0 0 1-.062.35q.001.01-.004.02-.027.153-.06.303l-.013.06a13 13 0 0 1-.175.701q-.044.164-.094.323-.055.174-.11.34-.11.333-.239.656l-.004.011q-.064.164-.135.327a9 9 0 0 1-.143.323c-.045.103-.094.2-.143.301l-.026.054c-.045.087-.087.177-.134.265a.2.2 0 0 0-.02.038l-.139.257-.034.06c-.051.087-.102.18-.154.267l-.004.004-.18.297q-.094.15-.19.295l-.164.246q-.025.033-.047.066-.092.131-.188.261a9 9 0 0 1-.212.278q-.108.139-.218.274-.221.269-.458.526-.119.13-.237.254-.362.378-.755.727M12.74 3.972s.02-.004.03-.008q.092-.025.184-.047.114-.03.224-.056l.178-.04a15 15 0 0 1 1.15-.206l.16-.019.27-.03q.147-.015.294-.025.08-.008.159-.011.277-.019.558-.026h.017q.17-.005.342-.004c.113 0 .233 0 .348.004l.349.013h.004q.161.005.318.02l.054.004q.158.01.312.027h.009l.307.035q.033.006.064.008.15.02.298.043l.245.04.148.026q.114.02.226.043l.285.06.213.049c.005 0 .011.004.018.004q.215.05.423.11M8.2 27.866a10 10 0 0 1-.249-.192 3 3 0 0 1-.145-.115 4 4 0 0 1-.18-.146q-.04-.033-.083-.072a2 2 0 0 1-.154-.133 3 3 0 0 1-.169-.152 12 12 0 0 1-.71-.69 12 12 0 0 1-.371-.406q-.086-.093-.165-.186l-.026-.032a5 5 0 0 1-.166-.204q-.064-.076-.124-.153a14 14 0 0 1-.58-.791l-.162-.248-.026-.039-.115-.186q-.062-.099-.122-.2l-.051-.086q-.077-.128-.146-.257-.224-.4-.417-.818a5 5 0 0 1-.117-.259 3 3 0 0 1-.098-.229 6 6 0 0 1-.116-.28 7 7 0 0 1-.111-.293q-.014-.031-.026-.064a12 12 0 0 1-.299-.938 4 4 0 0 1-.053-.201q-.024-.071-.039-.145a2 2 0 0 1-.04-.167 4 4 0 0 1-.052-.227 2 2 0 0 1-.043-.196 10 10 0 0 1-.12-.667q-.02-.128-.036-.257a1 1 0 0 1-.012-.1 5 5 0 0 1-.037-.321 6 6 0 0 1-.03-.327q-.005-.015-.004-.032a4 4 0 0 1-.02-.327 13 13 0 0 1-.008-1.238"/><path fill="#000" d="m25.311 27.126.096.109a.14.14 0 0 0 .05-.109zm-.227.199.094.11.003-.001zm-.947.742.084.119.002-.002zm-.756.5-.077-.124-.001.001zm-.216.13.073.126zm-.308.175.071.127zm-.263.144.067.128h.002zm-.271.137-.062-.132-.003.002zm-.274.132-.061-.132h-.002zm-.274.124v.145h.031l.028-.012zm-.012.004v-.145h-.032l-.028.013zm-.272.116-.053-.136-.003.002zm-.846.32.046.138zm-.306.1.043.14.003-.001zm-.331.1.039.14v-.001zm-.323.087-.036-.141h-.003zm-.28.068-.033-.142zm-.193.043-.028-.143-.005.002zm-.241.051-.026-.143-.004.001zm-.212.04-.022-.143-.006.001zm-.16.029-.023-.144-.007.001zm-.124.021-.022-.144zm-.242.036-.019-.144-.013.002-.014.005zm-.038.007.018.144h.006zm-.255.032-.014-.145h-.003zm-.425.045-.013-.145H17.5zm-.241.019-.008-.145h-.003zm-.274.017.008.145h.002zm-.349.013-.002-.145h-.003zm-.726-.002.007-.146h-.007zm-.304-.01.01-.146h-.01zm-.038 0-.007.144h.007zm-.272-.018.01-.145h-.01zm-.07-.004-.012.145h.012zm-.321-.03.017-.145h-.003zm-.584-.073.023-.144h-.002zm-.224-.034.025-.143-.004-.001zm-.085-.015-.026.143h.003zm-.178-.032.03-.142-.003-.001zm-.274-.054.034-.141-.006-.001zm-.228-.049.031-.142-.01-.001zm-.084-.017.033-.142h-.002zm-.175-.043.037-.14-.005-.001zm-.22-.055.037-.14-.004-.002zm-.214-.058.042-.14h-.004zm-.26-.075.041-.139h-.002zm-.18-.055.046-.138-.003-.001zm-.63-.216-.052.136zm-.236-.09.053-.135-.026-.01h-.027zm-.015-.006.065-.131-.012-.005zm-.278-.114.056-.134h-.002zm-.034-.013-.057.134.003.002zm-.289-.126-.065.13.006.003zm-.025-.01-.063.13.014.007.014.004zm-.272-.129.064-.13zm-.267-.132.066-.13zm-.603-.327-.073.125zm-.271-.16-.08.12.003.003zm-.02-.011-.074.125.014.008.015.005zm-.264-.167.08-.12-.003-.003zm-.272-.18.085-.118-.004-.002zm-.53-.376.087-.116-.038-.029h-.049zm-.01-.006-.141-.038-.03.115.105.053zm6.609-10.177-.032-.142-.005.001zm10.504 9.422h.145v-.023l-.007-.023zm-.096-.098-.113.099-.114.1.193.218.112-.1q.057-.048.114-.1zm-.224.197q-.455.385-.939.735l.17.235q.494-.356.956-.748zm-.937.733q-.367.259-.75.496l.153.247a17 17 0 0 0 .764-.504zm-.751.497a7 7 0 0 1-.212.128l.147.25q.11-.063.22-.133zm-.211.128-.306.174.142.253q.154-.086.31-.176zm-.306.174-.26.142.137.256q.131-.07.265-.145zm-.26.14q-.133.073-.265.135l.123.263a7 7 0 0 0 .277-.14zm-.268.137-.27.13.122.264q.141-.067.278-.135zm-.271.13q-.132.063-.27.123l.117.266q.14-.06.277-.126zm-.212.11a.15.15 0 0 0-.07.017l.01-.004a.1.1 0 0 1 .047-.008v.29a.2.2 0 0 0 .07-.016l-.009.004a.1.1 0 0 1-.048.008zm-.072.018q-.132.06-.265.113l.107.27q.14-.057.277-.118zm-.268.114q-.412.171-.838.317l.095.275q.434-.15.855-.324zm-.836.316-.152.05-.154.05.092.277.152-.05.154-.05zm-.304.1q-.16.05-.328.098l.08.279q.168-.048.335-.1zm-.327.097q-.16.046-.32.087l.073.282q.166-.044.326-.089zm-.322.087q-.134.036-.274.067l.065.284a7 7 0 0 0 .286-.07zm-.274.068-.188.041.057.286.197-.044zm-.193.043q-.118.027-.234.05l.052.285q.125-.023.249-.053zm-.238.05a4 4 0 0 1-.204.04l.044.287q.114-.02.22-.043zm-.21.04-.155.027.046.287q.08-.011.166-.029zm-.162.028-.116.02.044.288q.064-.01.132-.023zm-.117.02q-.121.02-.238.036l.038.288q.125-.017.246-.036zm-.265.043.01-.003h-.004l-.005.001-.017.002.048.287h.002l.011-.001a.2.2 0 0 0 .047-.01zm-.01 0c-.091.011-.167.023-.251.031l.029.29c.087-.01.178-.023.258-.033zm-.254.032q-.21.024-.421.044l.026.29q.215-.02.43-.046zm-.423.044a4 4 0 0 1-.234.019l.015.29q.128-.006.25-.02zm-.237.019-.134.008-.14.01.021.29.136-.01.138-.008zm-.271.017q-.17.009-.343.013l.005.29q.18-.003.354-.013zm-.346.013q-.168.005-.343.004v.29q.174.001.354-.004zm-.343.004q-.191.001-.37-.006l-.016.29c.129.007.26.006.386.006zm-.378-.007a5 5 0 0 1-.295-.01l-.018.29q.153.01.313.011zm-.304-.01h-.038v.29h.038zm-.031 0q-.133-.006-.268-.017l-.021.29q.136.01.275.017zm-.279-.017-.022-.002c-.01 0-.029-.003-.048-.003v.291l.02.002.05.002zm-.059-.004a8 8 0 0 1-.315-.03l-.034.29q.164.017.326.03zm-.318-.03a10 10 0 0 1-.575-.072l-.045.288q.295.045.592.073zm-.577-.072q-.115-.015-.22-.033l-.05.286c.075.013.155.024.229.035zm-.224-.034-.038-.006-.046-.009-.045.288.037.006.05.009zm-.08-.014-.173-.031-.061.284c.063.013.128.023.182.033zm-.177-.032c-.097-.018-.182-.032-.267-.052l-.067.283c.094.022.193.038.28.055zm-.273-.053-.225-.049-.063.284q.114.026.233.05zm-.234-.05-.073-.015-.065.283q.042.01.094.019zm-.075-.016-.17-.041-.072.281q.086.023.18.044zm-.174-.042q-.106-.025-.215-.055l-.074.281q.108.03.225.057zm-.219-.056a3 3 0 0 1-.205-.055l-.084.278q.11.033.223.06zm-.21-.056-.256-.074-.083.279q.13.038.264.075zm-.258-.074-.173-.054-.092.276q.09.03.186.057zm-.176-.055q-.318-.099-.623-.213l-.102.272q.313.117.639.219zm-.622-.213-.234-.09-.106.271.237.09zm-.287-.1a.13.13 0 0 1 .058.014h.001l-.009-.004-.13.26-.002-.001.01.005a.2.2 0 0 0 .072.017zm.037.004-.274-.112-.112.268q.137.059.282.115zm-.276-.113-.021-.008-.013-.005-.108.27.034.013zm-.031-.011-.287-.125-.118.265q.145.065.291.127zm-.28-.123c-.006-.002-.029-.015-.056-.021l-.07.282-.008-.002-.003-.002.002.001.005.002zm-.029-.011c-.094-.045-.178-.083-.27-.128l-.127.261c.091.045.187.088.272.129zm-.27-.128-.265-.131-.132.258c.089.046.182.091.27.134zm-.265-.132q-.301-.152-.596-.323l-.146.252q.303.175.61.33zm-.596-.323q-.138-.079-.268-.158l-.153.247q.139.085.275.162zm-.264-.155a.2.2 0 0 0-.053-.028l-.092.276-.018-.008.002.002zm-.025-.015a5 5 0 0 1-.258-.162l-.163.24q.135.09.272.172zm-.262-.165a5 5 0 0 1-.264-.175l-.17.237q.14.099.28.184zm-.268-.177a11 11 0 0 1-.524-.372l-.174.232q.263.199.536.381zm-.611-.401a.14.14 0 0 1 .062.015l.026.016q.002.002 0 .001a.2.2 0 0 0-.034-.023l-.13.26-.023-.015-.003-.002h.001l.003.003c.006.005.042.036.098.036zm.13.177c.568-2.114 1.362-4.425 2.437-6.314 1.076-1.894 2.418-3.335 4.068-3.76l-.072-.282c-1.767.455-3.16 1.983-4.25 3.898-1.09 1.92-1.893 4.258-2.464 6.382zm6.5-10.074c2.513-.568 4.411-.264 6.019 1.169 1.622 1.445 2.967 4.056 4.316 8.157l.276-.09c-1.35-4.108-2.715-6.783-4.399-8.284-1.698-1.514-3.703-1.817-6.275-1.235zm10.328 9.28v.012h.29v-.011z"/><path stroke="#000" stroke-linecap="round" stroke-miterlimit="10" stroke-width=".145" d="M14.345 22.16a.902.902 0 1 1-1.804 0 .902.902 0 0 1 1.804 0Zm3.43-1.955a.883.883 0 0 1-.88.883.883.883 0 0 1 0-1.764c.485 0 .88.396.88.88Zm4.058 2.482a.902.902 0 1 1-1.804 0 .902.902 0 0 1 1.804 0Zm-2.099 3.129c0 1.462-1.225 2.646-2.734 2.646-1.51 0-2.734-1.184-2.734-2.646S15.49 23.172 17 23.172s2.734 1.184 2.734 2.644Z"/><path stroke="#000" stroke-linecap="round" stroke-miterlimit="10" stroke-width=".291" d="M28.005 10.228q.224.384.423.782.056.108.105.216.022.044.04.088.053.111.103.222.04.086.075.175.279.648.487 1.33c.018.06.039.122.054.184q.023.071.043.15.036.117.066.24.014.046.023.088.027.101.05.202.034.134.06.27a10 10 0 0 1 .155.856q.027.18.05.361l.015.146q.014.104.023.213.007.066.01.135.017.147.022.297l.005.064c-3.271 1.36-6.798 2.144-9.066.678-4.066-2.8-4.367-6.182-.825-12.935l.342.099.019.006.36.118q.17.058.337.12.151.055.301.115.07.028.143.06.122.049.24.1.154.066.306.137.037.015.07.032.148.07.29.143.164.081.326.167l.316.173s.004 0 .004.004q.301.17.586.353l.077.051a14 14 0 0 1 .85.599l.287.224q.14.113.278.231"/><path stroke="#000" stroke-linecap="round" stroke-miterlimit="10" stroke-width=".145" d="M25.528 14.043a.902.902 0 1 1 1.222 1.33.902.902 0 0 1-1.222-1.33Zm-4.058-.583a.882.882 0 1 1-.05 1.245.88.88 0 0 1 .05-1.246zm-1.799-4.319a.902.902 0 1 1 1.225 1.325.902.902 0 0 1-1.225-1.325Zm8.209.872q.066.105.127.214c-.126.438-.37.846-.727 1.176-1.075.99-2.774.893-3.798-.216-1.022-1.11-.984-2.811.09-3.803a2.6 2.6 0 0 1 1.49-.67 9 9 0 0 1 .412.364l.045.04c.06.059.124.116.182.174q.202.192.395.395.205.215.4.439l.162.19a13.6 13.6 0 0 1 1.223 1.697Z"/><path stroke="#000" stroke-linecap="round" stroke-miterlimit="10" stroke-width=".291" d="m6.87 7.333.013-.012q.144-.141.295-.278.155-.144.316-.283a14 14 0 0 1 .569-.461l.132-.103q.14-.106.28-.205c.056-.039.111-.08.17-.115q.07-.052.14-.097l.154-.102q.148-.1.3-.19a13 13 0 0 1 1.475-.784l.113-.052a9 9 0 0 1 .479-.203 12 12 0 0 1 1.02-.36l.207-.062.192-.053s.01-.004.017-.004c2.056 3.364 3.709 7.334 2.366 10.053-2.27 4.269-5.508 5.013-12.32 2.465q0-.067.006-.13l.006-.11q.001-.114.013-.224.005-.083.015-.167a9 9 0 0 1 .092-.8q.006-.057.017-.115.02-.142.045-.284.002-.02.006-.037a5 5 0 0 1 .062-.32q.029-.153.066-.304.012-.066.03-.128.024-.113.056-.222a6 6 0 0 1 .087-.323q.044-.163.095-.32.048-.16.102-.317a5 5 0 0 1 .116-.325q.051-.15.113-.3.118-.308.256-.606.056-.124.116-.246.014-.036.03-.064.05-.103.102-.205.027-.063.06-.118c.028-.053.056-.11.084-.16q.05-.097.104-.189l.04-.074"/><path stroke="#000" stroke-linecap="round" stroke-miterlimit="10" stroke-width=".145" d="M11.82 10.018a.903.903 0 0 1 1.178-1.366.903.903 0 0 1-1.18 1.366zm-.539 3.994a.881.881 0 1 1 1.152-1.337.88.88 0 1 1-1.152 1.336Zm-4.17 1.662a.903.903 0 0 1 1.178-1.366.9.9 0 1 1-1.178 1.366ZM6.87 7.332a2.6 2.6 0 0 1 2.084.599c1.108.953 1.206 2.653.22 3.796-.985 1.144-2.68 1.298-3.787.344a2.58 2.58 0 0 1-.881-1.67q.03-.057.062-.108.06-.111.128-.216.027-.049.06-.098.158-.264.331-.518.09-.136.186-.267l.017-.026q.084-.12.174-.235.096-.13.198-.258.1-.129.203-.253l.017-.023q.092-.113.19-.222.107-.125.219-.246.093-.104.188-.203c.073-.075.143-.152.218-.225l.15-.15z"/></svg>
