<svg xmlns="http://www.w3.org/2000/svg" fill="none" viewBox="0 0 40 40"><g clip-path="url(#a)"><path fill="#000" d="M20 40c11.046 0 20-8.954 20-20S31.046 0 20 0 0 8.954 0 20s8.954 20 20 20"/><path fill="#000" stroke="#C63E73" stroke-width=".5" d="M35.586 20c0 8.608-6.978 15.586-15.586 15.586S4.414 28.608 4.414 20 11.392 4.414 20 4.414 35.586 11.392 35.586 20Z"/><path fill="url(#b)" fill-rule="evenodd" d="M30.343 16.31a4.92 4.92 0 0 1-1.291 3.375.34.34 0 0 0-.086.285c.554 3.11-.262 5.668-1.94 7.491-1.764 1.913-4.35 2.866-6.86 2.918h-.09c-2.508-.052-5.095-1.006-6.859-2.919-1.678-1.822-2.493-4.38-1.94-7.49a.34.34 0 0 0-.086-.285 4.92 4.92 0 0 1-.798-5.461c.886-1.833 3.127-3.264 5.421-2.785q.114.024.277.071c.341.1.655.273.93.494.614.489 1.74.816 3.028.816h.146c1.287 0 2.413-.326 3.026-.816a2.75 2.75 0 0 1 1.209-.565c2.294-.478 4.534.953 5.42 2.785a4.9 4.9 0 0 1 .493 2.086m-15.055-1.855c.293.054.573.166.828.325.422.266.328.847-.077 1.138l-2.07 1.48c-.404.29-.995.2-1.122-.278a2.3 2.3 0 0 1-.06-.874c.038-.291.133-.567.277-.814.146-.246.34-.46.573-.624a2.17 2.17 0 0 1 1.651-.352m11.177.352a2.1 2.1 0 0 1 .851 1.438c.038.288.017.586-.06.874-.128.478-.718.57-1.123.279l-2.069-1.48c-.405-.291-.5-.872-.078-1.138.253-.16.534-.27.828-.325.288-.055.584-.052.87.01.284.059.549.177.781.342m-5.575 8.629a2.4 2.4 0 0 0-1.536 0c-.276.093-.515.239-.5.457.028.335.56.909.945 1.027.235.072.384.067.646 0 .385-.098.92-.692.945-1.027.017-.218-.225-.364-.5-.457m-3.145-1.526c.196.113.368.265.505.447.138.182.24.392.3.618.101.375-.267.658-.658.613l-.992-.114-.986-.11c-.39-.044-.68-.403-.498-.746.11-.204.258-.385.436-.534a1.7 1.7 0 0 1 .595-.322 1.64 1.64 0 0 1 1.298.148m6.613.14a1.7 1.7 0 0 0-.595-.324 1.64 1.64 0 0 0-1.298.149 1.7 1.7 0 0 0-.505.448c-.139.185-.24.394-.3.618-.1.374.267.657.655.613l.993-.114.988-.11c.39-.044.68-.403.498-.746a1.9 1.9 0 0 0-.436-.535" clip-rule="evenodd"/></g><rect width="38" height="38" x="1" y="1" stroke="#F8BE40" stroke-width="2" rx="19"/><defs><linearGradient id="b" x1="42.628" x2="-1.271" y1="21.004" y2="21.665" gradientUnits="userSpaceOnUse"><stop stop-color="#F8F29C"/><stop offset=".165" stop-color="#F6DB2A"/><stop offset=".333" stop-color="#F4A435"/><stop offset=".55" stop-color="#E85A46"/><stop offset=".699" stop-color="#B93483"/><stop offset=".867" stop-color="#502B6E"/><stop offset="1" stop-color="#2A2136"/></linearGradient><clipPath id="a"><rect width="40" height="40" fill="#fff" rx="20"/></clipPath></defs></svg>
