<svg xmlns="http://www.w3.org/2000/svg" fill="none" viewBox="0 0 40 40"><g clip-path="url(#a)"><g clip-path="url(#b)"><path fill="#F8BE40" d="M20 40c11.046 0 20-8.954 20-20S31.046 0 20 0 0 8.954 0 20s8.954 20 20 20"/></g><g clip-path="url(#c)"><path fill="#78350F" d="M36.488 24.113c-2.271 9.107-11.495 14.65-20.603 12.378C6.78 34.221 1.238 24.996 3.509 15.89 5.78 6.78 15.003 1.237 24.11 3.508s14.65 11.496 12.379 20.604"/><mask id="d" fill="#fff"><path fill-rule="evenodd" d="M9.043 15.36c0 1.53.704 2.898 1.812 3.814a9 9 0 0 0-.34 2.473c0 5.216 4.397 9.445 9.82 9.445 5.424 0 9.82-4.229 9.82-9.445a9.1 9.1 0 0 0-.49-2.954 4.9 4.9 0 0 0 1.306-3.333c0-2.758-2.29-4.995-5.115-4.995a5.15 5.15 0 0 0-4.049 1.943 10.3 10.3 0 0 0-3.522.1 5.15 5.15 0 0 0-4.127-2.043c-2.825 0-5.115 2.236-5.115 4.995" clip-rule="evenodd"/></mask><path fill="#fff" d="m10.855 19.174 1.155.325.212-.752-.602-.498zm18.81-.48-.883-.812-.483.525.231.675zm-7.858-6.386-.171 1.188.683.098.43-.541zm-3.522.1-.96.721.456.607.744-.152zM11.62 18.25a3.74 3.74 0 0 1-1.377-2.889h-2.4c0 1.908.88 3.608 2.248 4.739zm.095 3.398c0-.744.103-1.464.295-2.148l-2.31-.65a10.3 10.3 0 0 0-.385 2.798zm8.62 8.245c-4.805 0-8.62-3.735-8.62-8.245h-2.4c0 5.923 4.978 10.645 11.02 10.645zm8.62-8.245c0 4.51-3.814 8.245-8.62 8.245v2.4c6.042 0 11.02-4.722 11.02-10.645zm-.425-2.565a7.9 7.9 0 0 1 .425 2.565h2.4c0-1.166-.194-2.29-.554-3.342zm1.241-3.722c0 .965-.37 1.848-.99 2.522l1.768 1.623a6.1 6.1 0 0 0 1.622-4.145zm-3.915-3.795c2.19 0 3.915 1.726 3.915 3.795h2.4c0-3.448-2.854-6.195-6.315-6.195zm-3.108 1.488a3.95 3.95 0 0 1 3.108-1.488v-2.4a6.35 6.35 0 0 0-4.99 2.398zm-2.413.35q.665 0 1.3.092l.344-2.375a11.5 11.5 0 0 0-1.644-.117zm-1.81.181a9 9 0 0 1 1.81-.181v-2.4c-.784 0-1.55.079-2.29.23zm-4.367-2.019c1.308 0 2.458.62 3.167 1.564l1.92-1.441a6.35 6.35 0 0 0-5.087-2.523zm-3.915 3.795c0-2.07 1.726-3.795 3.915-3.795v-2.4c-3.46 0-6.315 2.747-6.315 6.195z" mask="url(#d)"/><path fill="#fff" d="m16.68 14.13-4.209 3.215a2.648 2.648 0 1 1 4.209-3.216m7.003.184 4.209 3.216a2.648 2.648 0 1 0-4.209-3.216m-5.446 8.645c.2.55-.382.957-.958.85l-1.809-.337c-.575-.107-.971-.695-.587-1.136q.078-.09.168-.17a1.98 1.98 0 0 1 3.186.793m3.763 0c-.199.55.383.957.959.85l1.809-.337c.575-.107.972-.695.587-1.136a1.98 1.98 0 0 0-3.354.623m-.996.763c.258.169.463.407.592.687l-1.487.682-1.463-.732a1.636 1.636 0 0 1 2.358-.637"/></g><rect width="33.5" height="33.5" x="3.25" y="3.25" stroke="#000" stroke-width=".5" rx="16.75"/></g><defs><clipPath id="a"><rect width="40" height="40" fill="#fff" rx="20"/></clipPath><clipPath id="b"><path fill="#fff" d="M0 0h40v40H0z"/></clipPath><clipPath id="c"><rect width="34" height="34" x="3" y="3" fill="#fff" rx="17"/></clipPath></defs></svg>
